 <svg  version="1.0" xmlns="http://www.w3.org/2000/svg"  width="300.000000pt" height="299.000000pt" viewBox="0 0 300.000000 299.000000"  preserveAspectRatio="xMidYMid meet">  <g transform="translate(0.000000,299.000000) scale(0.100000,-0.100000)" fill="#c8102e" stroke="none"> <path d="M1285 2969 c-3 -8 1 -30 8 -49 l15 -33 7 32 c5 24 3 37 -9 49 -13 14 -16 14 -21 1z"/> <path d="M1386 2971 c-9 -14 4 -41 20 -41 8 0 14 10 14 25 0 25 -23 35 -34 16z"/> <path d="M1491 2963 c1 -25 17 -63 18 -43 1 8 4 25 7 38 5 16 2 22 -10 22 -9 0 -16 -8 -15 -17z"/> <path d="M1590 2968 c0 -7 3 -24 7 -37 6 -23 7 -23 14 -5 12 31 10 54 -6 54 -8 0 -15 -6 -15 -12z"/> <path d="M1697 2973 c-3 -5 -5 -25 -4 -46 1 -34 2 -37 14 -21 7 10 13 28 13 40 0 24 -15 40 -23 27z"/> <path d="M1185 2950 c-4 -6 3 -25 14 -42 l20 -32 -1 32 c-1 35 -21 61 -33 42z"/> <path d="M1796 2953 c-3 -4 -6 -22 -6 -42 l0 -36 20 33 c11 18 20 34 20 36 0 7 -28 14 -34 9z"/> <path d="M1087 2917 c-2 -7 4 -23 14 -36 l19 -23 0 36 c0 36 -22 51 -33 23z"/> <path d="M1897 2923 c-4 -3 -7 -20 -7 -37 l1 -31 14 25 c21 38 16 67 -8 43z"/> <path d="M987 2886 c-4 -9 2 -21 12 -28 10 -7 19 -17 19 -21 0 -5 3 -12 7 -15 4 -4 5 11 3 33 -3 41 -30 61 -41 31z"/> <path d="M1989 2896 c-1 -3 -2 -20 -3 -37 l-1 -30 18 22 c10 12 16 27 14 32 -4 12 -26 22 -28 13z"/> <path d="M1548 2865 c-14 -42 -17 -81 -10 -120 l7 -40 10 45 c11 49 5 150 -7 115z"/> <path d="M890 2853 c1 -5 12 -21 26 -38 l25 -30 -7 30 c-9 40 -13 45 -30 45 -8 0 -14 -3 -14 -7z"/> <path d="M1359 2815 c-1 -27 0 -54 1 -60 2 -5 6 -23 9 -40 7 -30 7 -29 13 11 3 23 0 63 -7 90 l-14 49 -2 -50z"/> <path d="M1449 2819 c-5 -56 0 -109 10 -109 11 0 13 122 2 139 -6 9 -10 0 -12 -30z"/> <path d="M1633 2825 c-6 -24 -8 -58 -4 -85 l7 -45 8 55 c4 31 6 69 4 85 -3 29 -3 29 -15 -10z"/> <path d="M2079 2853 c-1 -5 -2 -22 -4 -40 l-3 -31 23 26 c24 27 23 52 -1 52 -8 0 -14 -3 -15 -7z"/> <path d="M1170 2804 c0 -34 33 -134 44 -134 9 0 -10 100 -25 135 l-19 40 0 -41z"/> <path d="M1261 2809 c0 -19 9 -54 19 -79 l19 -45 0 35 c1 34 -18 103 -32 116 -4 4 -7 -8 -6 -27z"/> <path d="M1723 2800 c-15 -56 -22 -110 -13 -105 13 8 32 91 28 121 -3 27 -4 25 -15 -16z"/> <path d="M1816 2786 c-9 -24 -19 -61 -22 -83 l-4 -38 18 40 c17 37 37 125 28 125 -2 0 -11 -20 -20 -44z"/> <path d="M800 2807 c0 -8 11 -24 24 -36 l25 -23 -6 23 c-10 41 -43 68 -43 36z"/> <path d="M2177 2813 c-2 -5 -7 -21 -11 -38 l-7 -30 27 26 c14 15 23 32 20 38 -8 13 -23 14 -29 4z"/> <path d="M1087 2763 c7 -49 34 -112 40 -95 5 14 -26 120 -38 128 -4 2 -5 -13 -2 -33z"/> <path d="M1898 2760 c-20 -56 -31 -113 -19 -106 4 3 16 30 25 60 22 70 17 109 -6 46z"/> <path d="M710 2757 c0 -8 12 -24 26 -38 l26 -24 -8 30 c-4 17 -9 33 -11 38 -7 12 -33 8 -33 -6z"/> <path d="M996 2745 c7 -30 55 -128 60 -122 7 7 -18 75 -41 112 -24 38 -25 38 -19 10z"/> <path d="M1995 2747 c-16 -25 -47 -119 -40 -125 6 -6 35 55 50 104 15 50 12 55 -10 21z"/> <path d="M2260 2751 c0 -11 -3 -28 -6 -38 -6 -15 -3 -14 15 4 24 26 28 53 6 53 -8 0 -15 -9 -15 -19z"/> <path d="M916 2688 c8 -24 26 -56 40 -73 25 -29 25 -29 19 -5 -8 30 -51 107 -65 115 -5 3 -2 -14 6 -37z"/> <path d="M2072 2693 c-21 -31 -60 -125 -48 -112 27 27 83 135 75 144 -2 2 -15 -12 -27 -32z"/> <path d="M630 2690 c0 -11 4 -20 9 -20 5 0 17 -7 26 -16 15 -15 15 -14 9 12 -9 39 -13 44 -30 44 -8 0 -14 -9 -14 -20z"/> <path d="M2347 2703 c-4 -3 -7 -15 -7 -25 0 -10 -4 -18 -10 -18 -5 0 -10 -5 -10 -11 0 -6 14 -1 30 11 31 22 40 50 17 50 -8 0 -17 -3 -20 -7z"/> <path d="M2159 2667 c-13 -17 -32 -52 -41 -76 -17 -43 -17 -43 3 -25 20 18 74 123 67 130 -3 2 -15 -11 -29 -29z"/> <path d="M841 2645 c11 -28 31 -64 44 -80 l24 -30 -17 46 c-9 25 -29 61 -44 80 l-28 34 21 -50z"/> <path d="M545 2639 c-4 -6 -5 -11 -4 -13 60 -39 72 -39 43 2 -17 24 -29 28 -39 11z"/> <path d="M2427 2643 c-4 -3 -7 -15 -7 -25 0 -10 -4 -18 -10 -18 -5 0 -10 -5 -10 -11 0 -5 13 -2 30 8 17 9 30 25 30 35 0 18 -20 24 -33 11z"/> <path d="M764 2595 c26 -51 65 -107 66 -92 0 14 -39 82 -65 112 l-26 30 25 -50z"/> <path d="M2234 2611 c-12 -14 -31 -46 -44 -71 l-22 -45 26 25 c23 21 71 109 64 115 -2 1 -12 -9 -24 -24z"/> <path d="M1497 2552 c-3 -26 -2 -63 3 -82 6 -28 8 -19 9 48 1 45 -1 82 -3 82 -2 0 -6 -21 -9 -48z"/> <path d="M470 2573 c0 -13 14 -27 38 -41 23 -13 23 -13 7 18 -14 26 -45 42 -45 23z"/> <path d="M680 2547 c11 -18 36 -48 56 -67 l37 -35 -20 37 c-24 42 -72 98 -84 98 -5 0 0 -15 11 -33z"/> <path d="M1573 2510 c0 -41 2 -58 4 -37 2 20 2 54 0 75 -2 20 -4 3 -4 -38z"/> <path d="M2299 2543 c-19 -21 -43 -54 -53 -73 l-19 -35 37 35 c31 29 85 110 73 110 -2 0 -19 -17 -38 -37z"/> <path d="M2503 2568 c-5 -7 -13 -21 -16 -30 -5 -15 -4 -15 24 0 28 17 33 32 12 39 -5 2 -14 -2 -20 -9z"/> <path d="M1275 2553 c16 -77 28 -123 32 -120 6 7 -18 127 -27 132 -5 3 -7 -3 -5 -12z"/> <path d="M1200 2542 c0 -17 32 -117 40 -126 8 -8 1 26 -20 97 -10 34 -20 48 -20 29z"/> <path d="M1355 2511 c3 -24 10 -51 16 -60 6 -11 7 -4 3 24 -10 60 -26 90 -19 36z"/> <path d="M1433 2495 c0 -33 2 -45 4 -27 2 18 2 45 0 60 -2 15 -4 0 -4 -33z"/> <path d="M1642 2539 c-1 -9 -5 -32 -8 -50 -4 -28 -3 -31 6 -16 6 9 9 32 7 50 -2 17 -5 25 -5 16z"/> <path d="M1710 2499 c-22 -86 -22 -86 -11 -68 12 18 32 102 26 107 -2 2 -9 -16 -15 -39z"/> <path d="M1776 2481 c-10 -35 -16 -65 -13 -67 6 -7 39 104 35 118 -2 6 -12 -16 -22 -51z"/> <path d="M605 2493 c22 -34 95 -102 95 -89 0 22 -95 126 -114 126 -3 0 5 -17 19 -37z"/> <path d="M2375 2491 c-17 -15 -42 -42 -55 -61 l-25 -35 33 23 c33 24 88 89 81 96 -2 3 -18 -8 -34 -23z"/> <path d="M400 2496 c0 -7 7 -19 15 -26 8 -7 15 -9 15 -5 0 5 9 0 20 -10 11 -10 20 -13 20 -7 0 7 -4 12 -8 12 -5 0 -14 11 -20 25 -12 26 -42 34 -42 11z"/> <path d="M2565 2479 l-16 -30 23 12 c27 14 39 30 32 41 -10 16 -24 8 -39 -23z"/> <path d="M1144 2484 c3 -9 6 -21 6 -28 0 -7 7 -21 15 -32 12 -16 12 -12 -1 29 -9 26 -18 47 -21 47 -3 0 -2 -7 1 -16z"/> <path d="M1847 2468 c-16 -39 -29 -88 -23 -88 2 0 13 27 24 60 22 64 21 81 -1 28z"/> <path d="M1911 2434 c-12 -26 -20 -48 -18 -51 3 -2 14 17 26 43 12 25 20 48 18 50 -2 2 -13 -17 -26 -42z"/> <path d="M990 2467 c0 -14 59 -125 70 -132 6 -4 -2 19 -19 52 -34 65 -51 92 -51 80z"/> <path d="M1070 2467 c0 -11 49 -107 55 -107 2 0 1 8 -2 18 -10 26 -53 98 -53 89z"/> <path d="M1998 2448 c-24 -37 -60 -110 -56 -114 2 -2 21 28 42 66 36 68 44 94 14 48z"/> <path d="M554 2417 c20 -25 49 -53 64 -63 l27 -18 -30 40 c-31 41 -48 57 -79 75 -11 7 -4 -8 18 -34z"/> <path d="M2415 2404 c-31 -31 -53 -59 -51 -62 7 -6 92 65 110 94 28 42 -2 26 -59 -32z"/> <path d="M330 2415 c0 -9 8 -18 18 -21 9 -3 25 -10 35 -15 22 -12 21 0 -2 29 -22 25 -51 29 -51 7z"/> <path d="M2036 2370 c-21 -34 -36 -64 -33 -66 3 -3 22 22 42 56 20 34 35 63 33 66 -3 2 -22 -23 -42 -56z"/> <path d="M2633 2413 c-4 -10 -14 -24 -22 -31 -14 -12 -14 -13 4 -7 11 4 28 10 38 12 21 6 23 43 2 43 -9 0 -19 -8 -22 -17z"/> <path d="M940 2407 c0 -12 50 -96 62 -103 5 -3 3 7 -6 22 -22 42 -56 90 -56 81z"/> <path d="M479 2362 c21 -31 110 -97 118 -89 5 5 -93 94 -120 109 -19 10 -19 9 2 -20z"/> <path d="M2468 2330 c-29 -27 -48 -49 -41 -50 6 0 36 22 65 50 29 27 48 49 41 50 -6 0 -36 -22 -65 -50z"/> <path d="M897 2332 c19 -36 43 -61 43 -45 0 5 -14 24 -31 43 l-30 35 18 -33z"/> <path d="M2099 2337 c-34 -47 -53 -81 -41 -73 14 8 65 86 60 91 -2 2 -10 -7 -19 -18z"/> <path d="M270 2336 c0 -17 5 -21 45 -30 l30 -8 -24 26 c-27 29 -51 34 -51 12z"/> <path d="M2686 2325 c-19 -29 -19 -29 23 -14 32 11 37 32 9 37 -8 2 -23 -9 -32 -23z"/> <path d="M827 2305 c17 -22 41 -49 54 -60 l23 -20 -21 30 c-12 17 -36 44 -54 60 l-33 30 31 -40z"/> <path d="M420 2287 c14 -13 48 -37 75 -52 l50 -28 -24 27 c-24 26 -102 76 -118 76 -4 0 4 -11 17 -23z"/> <path d="M2142 2277 c-33 -34 -44 -60 -17 -37 17 14 59 70 53 70 -2 0 -18 -15 -36 -33z"/> <path d="M2560 2290 c-19 -10 -48 -32 -65 -50 l-30 -31 46 25 c25 14 56 37 69 51 28 30 26 30 -20 5z"/> <path d="M748 2285 c6 -11 32 -40 57 -65 26 -25 43 -36 37 -25 -6 11 -32 40 -57 65 -26 25 -43 36 -37 25z"/> <path d="M2200 2234 c-30 -30 -48 -52 -38 -49 14 6 105 105 96 105 -2 0 -28 -25 -58 -56z"/> <path d="M227 2263 c-15 -14 -6 -31 19 -37 36 -9 38 -4 11 22 -13 12 -27 19 -30 15z"/> <path d="M2739 2234 l-24 -26 34 14 c36 14 53 38 29 38 -8 0 -25 -12 -39 -26z"/> <path d="M354 2221 c19 -21 115 -75 122 -68 9 9 -109 87 -132 87 -4 0 0 -8 10 -19z"/> <path d="M2273 2208 c-22 -18 -48 -44 -59 -58 -16 -22 -14 -21 21 7 43 33 92 83 83 83 -3 0 -24 -15 -45 -32z"/> <path d="M2604 2210 c-22 -11 -48 -28 -59 -40 l-18 -20 39 16 c36 15 105 65 87 63 -4 0 -26 -9 -49 -19z"/> <path d="M741 2184 c18 -20 43 -40 54 -46 11 -6 0 10 -25 36 -24 25 -49 46 -54 46 -5 0 6 -16 25 -36z"/> <path d="M174 2165 c-8 -20 5 -37 23 -31 8 3 24 1 36 -5 18 -9 16 -6 -7 20 -33 34 -44 38 -52 16z"/> <path d="M2795 2153 l-30 -26 30 7 c37 9 52 23 40 35 -6 6 -21 0 -40 -16z"/> <path d="M300 2155 c0 -10 70 -56 106 -70 l39 -16 -35 30 c-30 26 -110 66 -110 56z"/> <path d="M684 2142 c20 -23 91 -69 81 -52 -3 5 -27 24 -53 42 -33 22 -42 25 -28 10z"/> <path d="M2297 2134 c-21 -14 -36 -28 -33 -31 4 -5 76 45 76 53 0 7 -5 5 -43 -22z"/> <path d="M2665 2141 c-40 -19 -115 -71 -102 -71 15 0 93 42 122 65 36 30 33 31 -20 6z"/> <path d="M600 2117 c0 -8 121 -89 126 -84 3 2 -19 20 -48 39 -67 44 -78 50 -78 45z"/> <path d="M2328 2070 c-56 -35 -65 -52 -10 -19 36 21 71 49 62 49 -3 0 -26 -14 -52 -30z"/> <path d="M125 2070 c-7 -11 1 -15 50 -24 l30 -7 -25 21 c-28 22 -46 25 -55 10z"/> <path d="M2834 2065 c-4 -8 -12 -15 -20 -15 -8 0 -14 -4 -14 -8 0 -17 75 3 78 21 4 22 -36 24 -44 2z"/> <path d="M280 2051 c14 -11 42 -26 63 -31 21 -6 46 -14 55 -17 9 -3 1 5 -19 19 -19 14 -47 28 -61 31 -14 4 -34 10 -45 13 -13 4 -11 0 7 -15z"/> <path d="M2705 2057 c-32 -12 -105 -56 -105 -62 0 -9 83 26 117 49 40 28 36 32 -12 13z"/> <path d="M567 2042 c36 -27 127 -76 119 -64 -7 12 -122 82 -134 82 -4 0 3 -8 15 -18z"/> <path d="M2400 2035 c-25 -13 -56 -34 -70 -45 -21 -18 -17 -17 25 5 46 24 107 65 95 64 -3 0 -25 -11 -50 -24z"/> <path d="M2870 1968 l-24 -20 34 4 c34 3 51 22 28 31 -8 2 -25 -4 -38 -15z"/> <path d="M92 1968 c3 -7 20 -14 39 -16 32 -3 33 -3 14 12 -24 19 -58 21 -53 4z"/> <path d="M245 1964 c31 -18 125 -46 125 -38 0 8 -83 42 -120 48 l-35 7 30 -17z"/> <path d="M566 1961 c17 -10 41 -21 55 -25 13 -4 4 5 -21 18 -52 29 -79 35 -34 7z"/> <path d="M2401 1953 c-29 -15 -49 -29 -44 -30 10 -4 103 45 103 53 0 7 -4 5 -59 -23z"/> <path d="M2725 1969 c-22 -5 -51 -18 -65 -29 l-25 -19 50 13 c51 13 95 32 95 41 0 6 -4 5 -55 -6z"/> <path d="M545 1890 c62 -28 96 -33 40 -6 -27 14 -57 25 -65 25 -8 -1 3 -9 25 -19z"/> <path d="M2435 1890 c-22 -11 -29 -17 -15 -14 29 8 80 33 65 33 -5 0 -28 -8 -50 -19z"/> <path d="M190 1895 c0 -9 88 -42 125 -48 l40 -7 -46 24 c-42 20 -119 41 -119 31z"/> <path d="M2775 1891 c-22 -4 -58 -17 -80 -28 l-40 -21 45 5 c42 6 130 38 130 48 0 3 -3 4 -7 4 -5 -1 -26 -5 -48 -8z"/> <path d="M60 1875 c0 -16 1 -17 43 -19 l28 -2 -23 18 c-28 22 -48 23 -48 3z"/> <path d="M2895 1870 l-30 -20 31 0 c29 0 54 15 54 32 0 14 -24 9 -55 -12z"/> <path d="M505 1831 c22 -10 54 -21 70 -24 26 -5 24 -4 -10 12 -22 10 -53 21 -70 24 -26 5 -24 4 10 -12z"/> <path d="M2465 1829 c-33 -12 -62 -23 -65 -26 -9 -10 64 9 104 28 55 24 35 23 -39 -2z"/> <path d="M220 1780 c30 -11 66 -19 80 -19 20 0 16 3 -19 19 -24 11 -60 20 -80 19 -35 -1 -35 -1 19 -19z"/> <path d="M2720 1779 l-45 -19 45 4 c25 2 63 11 85 19 l40 16 -40 0 c-22 -1 -60 -10 -85 -20z"/> <path d="M36 1781 c-11 -17 21 -31 53 -25 l32 7 -27 13 c-30 16 -50 18 -58 5z"/> <path d="M2912 1775 l-23 -13 25 -6 c30 -7 56 2 56 20 0 17 -27 17 -58 -1z"/> <path d="M2490 1763 c-60 -16 -93 -36 -39 -24 66 16 119 32 119 36 0 8 -20 4 -80 -12z"/> <path d="M529 1749 c30 -10 56 -17 58 -15 5 5 -86 36 -101 35 -6 0 13 -9 43 -20z"/> <path d="M180 1695 c19 -7 58 -13 85 -13 l50 0 -35 13 c-19 7 -57 13 -85 13 l-50 0 35 -13z"/> <path d="M2728 1696 c-20 -6 -39 -14 -42 -17 -10 -10 108 3 144 17 l35 13 -50 -1 c-27 0 -67 -5 -87 -12z"/> <path d="M470 1690 c14 -4 36 -8 50 -8 l25 0 -25 8 c-14 4 -36 8 -50 8 l-25 0 25 -8z"/> <path d="M2470 1685 c-30 -9 -37 -13 -20 -13 14 0 43 5 65 13 52 17 14 17 -45 0z"/> <path d="M25 1680 c-11 -18 5 -30 28 -21 12 4 29 6 37 4 8 -2 4 3 -10 11 -29 18 -46 20 -55 6z"/> <path d="M2942 1678 c-18 -18 -14 -28 12 -28 13 0 26 6 29 14 10 26 -19 36 -41 14z"/> <path d="M455 1619 c22 -4 54 -8 70 -7 29 0 29 0 5 8 -14 4 -45 8 -70 8 l-45 0 40 -9z"/> <path d="M141 1610 c19 -11 58 -15 114 -11 39 3 40 3 10 11 -46 12 -144 12 -124 0z"/> <path d="M2468 1613 c18 -2 45 -2 60 0 15 2 0 4 -33 4 -33 0 -45 -2 -27 -4z"/> <path d="M2740 1610 c-23 -7 -23 -8 10 -11 48 -4 104 1 112 9 10 10 -92 11 -122 2z"/> <path d="M17 1583 c-21 -21 8 -34 43 -21 24 10 24 11 5 18 -25 11 -40 12 -48 3z"/> <path d="M2945 1577 c-17 -13 -17 -14 6 -20 26 -7 45 5 35 22 -9 14 -18 14 -41 -2z"/> <path d="M420 1549 c0 -5 32 -9 72 -9 39 0 69 2 67 4 -9 8 -139 13 -139 5z"/> <path d="M2500 1550 l-55 -7 73 -1 c42 -1 72 2 72 8 0 11 -4 11 -90 0z"/> <path d="M140 1521 c17 -10 69 -15 120 -11 l35 2 -30 8 c-43 11 -144 12 -125 1z"/> <path d="M2740 1520 l-35 -7 35 -3 c55 -4 114 1 125 11 11 11 -73 10 -125 -1z"/> <path d="M15 1479 c-13 -19 13 -35 35 -21 11 6 27 12 37 12 25 0 12 7 -29 14 -23 4 -39 2 -43 -5z"/> <path d="M460 1480 c-22 -7 -20 -8 15 -9 22 0 47 4 55 9 11 7 8 9 -15 9 -16 -1 -41 -5 -55 -9z"/> <path d="M2946 1476 l-29 -13 29 -6 c30 -5 58 8 48 24 -7 11 -12 11 -48 -5z"/> <path d="M2478 1473 c17 -2 47 -2 65 0 17 2 3 4 -33 4 -36 0 -50 -2 -32 -4z"/> <path d="M150 1430 c-18 -6 -9 -8 35 -8 33 0 71 4 85 8 18 6 9 8 -35 8 -33 0 -71 -4 -85 -8z"/> <path d="M2726 1431 c-8 -12 56 -19 107 -11 l42 6 -34 7 c-47 10 -109 9 -115 -2z"/> <path d="M470 1410 l-35 -7 35 -1 c19 0 46 4 60 8 l25 8 -25 0 c-14 0 -41 -4 -60 -8z"/> <path d="M2470 1411 c13 -10 99 -16 89 -7 -2 2 -26 6 -54 10 -36 5 -46 4 -35 -3z"/> <path d="M21 1376 c-18 -21 2 -28 39 -12 31 13 31 13 9 19 -33 9 -35 9 -48 -7z"/> <path d="M2945 1380 c-4 -6 -16 -8 -28 -6 -12 3 -7 -1 12 -10 36 -16 65 -12 59 9 -6 16 -34 21 -43 7z"/> <path d="M260 1354 c-14 -3 -44 -7 -67 -10 -24 -3 -43 -10 -43 -15 0 -13 81 -3 123 15 33 15 31 16 -13 10z"/> <path d="M2717 1350 c13 -11 88 -30 119 -30 52 0 10 20 -59 28 -37 5 -64 6 -60 2z"/> <path d="M452 1338 c-24 -5 -42 -11 -40 -13 5 -6 129 12 136 19 8 9 -47 5 -96 -6z"/> <path d="M2465 1341 c11 -5 47 -11 80 -14 l60 -5 -50 13 c-57 15 -124 19 -90 6z"/> <path d="M38 1279 c-9 -6 -10 -11 -2 -19 7 -7 18 -7 38 3 l27 15 -25 4 c-14 3 -31 1 -38 -3z"/> <path d="M521 1279 c-65 -13 -74 -20 -16 -13 28 3 57 10 65 15 18 10 10 10 -49 -2z"/> <path d="M2457 1275 c17 -8 51 -17 75 -20 l43 -5 -45 13 c-25 8 -58 16 -75 20 l-30 6 32 -14z"/> <path d="M2929 1265 c33 -15 56 -12 46 6 -4 5 -23 9 -43 9 l-37 -1 34 -14z"/> <path d="M190 1255 l-35 -13 46 -1 c26 -1 62 6 80 14 l34 14 -45 0 c-25 0 -61 -7 -80 -14z"/> <path d="M2735 1250 c28 -11 70 -20 95 -19 l45 1 -50 18 c-27 10 -70 19 -95 19 l-45 0 50 -19z"/> <path d="M512 1203 c-24 -8 -42 -17 -40 -19 6 -5 82 17 93 27 13 13 -2 10 -53 -8z"/> <path d="M2465 1199 c33 -10 65 -18 70 -18 18 1 -89 37 -110 37 -11 0 7 -8 40 -19z"/> <path d="M47 1176 c-8 -21 18 -27 50 -11 25 13 26 15 6 15 -12 0 -28 3 -36 6 -8 3 -17 -1 -20 -10z"/> <path d="M275 1181 c-27 -4 -63 -14 -80 -24 l-30 -16 50 6 c48 6 115 28 115 38 0 3 -1 4 -2 4 -2 -1 -25 -5 -53 -8z"/> <path d="M2670 1184 c0 -9 69 -31 115 -37 l50 -6 -35 18 c-30 16 -130 35 -130 25z"/> <path d="M2916 1181 l-29 -6 27 -14 c20 -11 29 -12 38 -3 17 17 -2 30 -36 23z"/> <path d="M530 1134 c-34 -15 -44 -23 -25 -19 39 8 115 43 95 44 -8 0 -40 -11 -70 -25z"/> <path d="M2402 1149 c23 -13 98 -39 98 -34 0 6 -91 45 -104 45 -6 0 -3 -5 6 -11z"/> <path d="M290 1096 c-19 -7 -48 -20 -65 -29 l-30 -16 39 6 c22 3 58 17 80 29 44 26 32 31 -24 10z"/> <path d="M2665 1092 c26 -16 108 -42 132 -42 24 0 -80 48 -118 54 l-44 7 30 -19z"/> <path d="M563 1070 c-35 -16 -63 -32 -63 -34 0 -6 94 34 127 53 38 22 -5 10 -64 -19z"/> <path d="M2425 1065 c39 -19 75 -34 80 -34 15 0 -96 55 -125 63 -14 3 7 -10 45 -29z"/> <path d="M75 1080 c-3 -5 -3 -14 0 -20 9 -14 33 -12 42 4 4 7 15 16 23 19 8 3 -2 6 -22 6 -20 1 -40 -3 -43 -9z"/> <path d="M2877 1069 c35 -24 55 -24 51 -1 -2 12 -14 17 -41 18 l-38 1 28 -18z"/> <path d="M608 1014 c-27 -13 -48 -26 -48 -29 0 -6 72 25 95 41 31 22 5 15 -47 -12z"/> <path d="M2340 1029 c31 -21 134 -69 115 -54 -23 19 -110 65 -122 65 -4 0 -1 -5 7 -11z"/> <path d="M325 1016 c-40 -12 -99 -46 -92 -52 7 -7 78 18 119 41 47 27 36 31 -27 11z"/> <path d="M2630 1020 c30 -21 86 -47 115 -54 24 -5 20 -1 -20 23 -49 28 -127 54 -95 31z"/> <path d="M135 993 c-30 -7 -41 -21 -28 -34 9 -9 20 -5 43 15 30 25 27 29 -15 19z"/> <path d="M2820 995 c0 -2 14 -13 31 -26 23 -16 33 -19 42 -10 7 7 7 14 2 20 -11 9 -75 23 -75 16z"/> <path d="M652 959 c-23 -17 -42 -33 -42 -35 0 -8 60 30 77 49 24 25 12 21 -35 -14z"/> <path d="M2329 962 c38 -31 88 -59 74 -41 -6 8 -31 25 -55 38 -36 19 -39 19 -19 3z"/> <path d="M2610 931 c31 -27 118 -66 127 -57 5 5 -74 56 -87 56 -6 0 -25 7 -43 16 l-32 15 35 -30z"/> <path d="M365 936 c-34 -12 -110 -61 -82 -52 11 3 31 9 45 13 31 7 104 54 82 52 -8 -1 -29 -6 -45 -13z"/> <path d="M680 894 c-52 -41 -73 -61 -50 -48 26 14 110 76 110 80 0 11 -19 1 -60 -32z"/> <path d="M2304 895 c22 -19 44 -35 49 -35 5 0 -10 16 -33 35 -54 45 -67 45 -16 0z"/> <path d="M147 893 c-13 -12 -7 -23 12 -23 10 0 24 7 31 15 10 13 9 15 -12 15 -14 0 -28 -3 -31 -7z"/> <path d="M2817 879 c22 -23 46 -18 36 6 -3 8 -17 15 -31 15 l-26 0 21 -21z"/> <path d="M430 873 c-40 -17 -104 -63 -97 -69 4 -5 77 26 87 36 3 3 18 16 34 28 33 25 26 27 -24 5z"/> <path d="M718 829 c-44 -42 -46 -46 -13 -21 41 31 83 72 72 72 -3 0 -30 -23 -59 -51z"/> <path d="M2265 836 c27 -25 54 -46 59 -46 11 0 -68 71 -93 83 -9 4 6 -12 34 -37z"/> <path d="M2545 870 c8 -13 82 -56 120 -70 l30 -11 -34 28 c-36 29 -127 71 -116 53z"/> <path d="M230 817 c-19 -7 -36 -20 -38 -29 -5 -27 20 -21 51 12 16 17 27 30 25 29 -1 0 -19 -5 -38 -12z"/> <path d="M2187 816 c4 -7 24 -26 43 -42 35 -27 35 -27 -5 14 -41 44 -52 52 -38 28z"/> <path d="M769 783 l-34 -36 38 28 c20 15 37 31 37 36 0 14 -4 11 -41 -28z"/> <path d="M460 790 c-19 -10 -48 -33 -65 -50 l-30 -32 35 17 c35 18 117 85 103 85 -5 -1 -24 -9 -43 -20z"/> <path d="M2530 777 c34 -33 100 -74 100 -62 0 11 -74 70 -104 83 l-31 13 35 -34z"/> <path d="M2767 789 c14 -15 27 -19 40 -15 17 7 17 8 -1 22 -11 8 -29 14 -40 14 -20 0 -20 0 1 -21z"/> <path d="M835 753 c-31 -34 -42 -53 -31 -53 2 0 20 20 40 45 45 55 38 60 -9 8z"/> <path d="M2175 730 c21 -22 41 -40 43 -40 1 0 -12 18 -29 40 -18 22 -37 40 -43 40 -5 0 8 -18 29 -40z"/> <path d="M512 720 c-40 -26 -92 -75 -92 -86 0 -13 80 45 109 79 18 20 31 37 30 36 -2 0 -23 -13 -47 -29z"/> <path d="M904 728 c-11 -13 -33 -41 -48 -63 l-27 -40 41 45 c38 41 66 80 57 80 -2 0 -12 -10 -23 -22z"/> <path d="M2080 746 c0 -10 80 -116 87 -116 6 0 -25 48 -59 91 -15 19 -28 30 -28 25z"/> <path d="M283 733 c-31 -6 -49 -31 -35 -45 9 -9 20 -4 43 20 17 18 27 31 23 31 -5 -1 -19 -4 -31 -6z"/> <path d="M2481 704 c18 -20 48 -42 64 -50 24 -12 19 -5 -23 36 -61 57 -94 69 -41 14z"/> <path d="M2690 734 c0 -14 43 -54 58 -54 7 0 12 9 12 20 0 14 -7 20 -23 20 -13 0 -28 5 -35 12 -7 7 -12 8 -12 2z"/> <path d="M941 664 c-18 -25 -31 -47 -29 -50 3 -2 19 17 37 42 18 25 31 47 29 50 -3 2 -19 -17 -37 -42z"/> <path d="M2028 694 c18 -33 82 -119 82 -111 0 11 -69 115 -82 123 -6 4 -6 0 0 -12z"/> <path d="M564 649 c-23 -15 -49 -39 -58 -53 l-16 -25 33 19 c35 21 93 77 86 84 -2 2 -22 -9 -45 -25z"/> <path d="M2410 652 c22 -29 90 -82 107 -82 12 0 -41 52 -86 82 l-44 31 23 -31z"/> <path d="M1970 664 c0 -5 14 -29 30 -54 30 -45 41 -49 19 -7 -17 31 -49 71 -49 61z"/> <path d="M1012 648 c-5 -7 -17 -29 -26 -48 -15 -31 -15 -33 -1 -15 19 23 48 75 41 75 -2 0 -8 -6 -14 -12z"/> <path d="M323 640 c-13 -5 -23 -16 -23 -25 0 -23 23 -18 43 10 19 27 15 29 -20 15z"/> <path d="M1915 630 c9 -31 44 -100 50 -100 5 0 -43 111 -52 120 -3 3 -2 -6 2 -20z"/> <path d="M2657 625 c20 -27 43 -33 43 -10 0 9 -12 20 -26 25 -36 14 -37 13 -17 -15z"/> <path d="M1071 618 c-17 -28 -51 -108 -46 -108 7 0 67 121 63 126 -2 2 -10 -6 -17 -18z"/> <path d="M606 569 c-51 -57 -61 -83 -18 -47 33 27 86 98 73 98 -5 0 -30 -23 -55 -51z"/> <path d="M1856 600 c3 -14 17 -47 30 -75 13 -27 21 -39 18 -25 -3 14 -17 48 -30 75 -13 28 -21 39 -18 25z"/> <path d="M2338 604 c13 -25 70 -82 96 -96 17 -9 17 -7 -3 20 -28 39 -109 105 -93 76z"/> <path d="M1130 583 c-23 -51 -40 -104 -30 -98 10 6 53 116 47 121 -2 2 -9 -8 -17 -23z"/> <path d="M1195 557 c-7 -18 -16 -46 -19 -63 -7 -31 -3 -25 25 49 21 53 16 65 -6 14z"/> <path d="M1794 563 c10 -41 38 -114 43 -110 5 5 -37 137 -43 137 -4 0 -3 -12 0 -27z"/> <path d="M392 562 c-18 -8 -31 -20 -29 -26 7 -21 26 -16 47 14 12 16 20 30 18 29 -2 0 -18 -8 -36 -17z"/> <path d="M1260 539 c-22 -86 -22 -86 -11 -68 12 18 32 102 26 107 -2 2 -9 -16 -15 -39z"/> <path d="M2270 567 c0 -11 57 -92 79 -111 28 -25 27 -14 -3 32 -23 36 -76 91 -76 79z"/> <path d="M2596 545 c9 -14 23 -25 30 -25 29 0 10 30 -29 43 -16 6 -16 5 -1 -18z"/> <path d="M699 537 c-14 -12 -36 -40 -50 -62 l-24 -40 31 25 c23 19 82 102 71 100 -1 -1 -14 -11 -28 -23z"/> <path d="M1321 497 c-7 -37 -11 -70 -8 -73 7 -8 29 102 25 124 -2 9 -10 -14 -17 -51z"/> <path d="M1666 520 c8 -60 24 -88 17 -30 -3 25 -10 52 -15 60 -6 10 -6 -1 -2 -30z"/> <path d="M1397 530 c-4 -14 -6 -47 -6 -75 l1 -50 9 55 c11 64 8 112 -4 70z"/> <path d="M1731 540 c0 -8 7 -31 15 -50 l14 -35 -6 35 c-7 40 -24 76 -23 50z"/> <path d="M1531 493 c0 -29 3 -53 7 -53 4 0 6 17 4 38 -6 64 -10 69 -11 15z"/> <path d="M1601 479 c4 -33 10 -63 14 -67 4 -4 5 15 1 42 -3 27 -6 57 -6 67 0 11 -4 19 -8 19 -5 0 -5 -27 -1 -61z"/> <path d="M1463 480 c0 -30 2 -43 4 -27 2 15 2 39 0 55 -2 15 -4 2 -4 -28z"/> <path d="M2223 475 c14 -27 40 -63 57 -80 l32 -30 -21 43 c-12 24 -38 60 -57 80 l-36 37 25 -50z"/> <path d="M463 496 c-25 -12 -38 -35 -26 -47 10 -10 30 2 35 21 2 8 10 20 18 27 18 15 3 15 -27 -1z"/> <path d="M763 478 c-36 -39 -63 -79 -63 -92 0 -14 62 54 83 92 23 40 19 40 -20 0z"/> <path d="M2521 478 c15 -29 28 -38 46 -31 17 7 8 20 -28 39 -30 15 -30 15 -18 -8z"/> <path d="M2146 435 c14 -35 74 -116 74 -100 0 17 -33 74 -59 105 l-31 35 16 -40z"/> <path d="M838 433 c-28 -30 -62 -92 -55 -99 6 -6 49 52 71 94 20 39 17 40 -16 5z"/> <path d="M533 423 c-24 -16 -32 -58 -11 -51 10 4 44 69 36 67 -2 0 -13 -7 -25 -16z"/> <path d="M2067 400 c20 -52 80 -141 68 -100 -14 47 -33 85 -59 115 l-25 30 16 -45z"/> <path d="M2452 405 c11 -20 26 -34 32 -32 19 6 12 31 -11 42 -13 5 -23 13 -23 17 0 5 -4 8 -10 8 -5 0 0 -16 12 -35z"/> <path d="M916 401 c-9 -10 -26 -43 -37 -72 l-20 -54 25 30 c20 24 60 115 51 115 -1 0 -10 -8 -19 -19z"/> <path d="M988 353 c-22 -37 -51 -114 -44 -121 7 -7 47 67 60 112 8 25 13 46 11 46 -2 0 -14 -17 -27 -37z"/> <path d="M1995 360 c9 -43 32 -95 50 -110 17 -14 -12 74 -38 115 l-18 30 6 -35z"/> <path d="M613 360 c-23 -18 -31 -50 -13 -50 9 0 44 59 38 65 -2 2 -13 -5 -25 -15z"/> <path d="M2370 367 c0 -21 22 -57 35 -57 25 0 17 22 -17 49 -10 7 -18 11 -18 8z"/> <path d="M1063 303 c-11 -27 -23 -61 -27 -78 -6 -27 -4 -25 18 13 23 39 45 112 33 112 -2 0 -14 -21 -24 -47z"/> <path d="M1917 315 c6 -41 41 -121 49 -112 9 8 -14 87 -35 119 l-20 33 6 -40z"/> <path d="M1154 304 c-17 -42 -34 -124 -25 -124 9 0 38 80 44 123 7 47 0 47 -19 1z"/> <path d="M1835 291 c3 -23 14 -59 25 -80 l20 -36 -7 40 c-3 22 -15 58 -25 80 l-19 40 6 -44z"/> <path d="M692 297 c-24 -25 -29 -51 -9 -45 13 5 42 57 35 64 -3 2 -14 -6 -26 -19z"/> <path d="M1752 270 c1 -25 9 -64 19 -85 l17 -40 -5 55 c-3 30 -12 69 -19 85 l-13 30 1 -45z"/> <path d="M2290 297 c0 -21 26 -51 38 -43 17 10 14 19 -13 39 -19 14 -25 15 -25 4z"/> <path d="M1233 269 c-7 -20 -13 -53 -12 -75 l1 -39 14 34 c8 18 14 52 12 74 l-3 41 -12 -35z"/> <path d="M1323 261 c-7 -19 -13 -57 -12 -85 l0 -51 15 40 c8 22 13 60 12 85 l-3 45 -12 -34z"/> <path d="M1582 240 c0 -30 3 -68 7 -85 l7 -30 6 35 c3 20 0 58 -7 85 l-14 50 1 -55z"/> <path d="M1668 233 c6 -79 21 -113 21 -52 1 54 -8 109 -19 109 -3 0 -5 -26 -2 -57z"/> <path d="M777 252 c-32 -33 -34 -52 -7 -52 14 0 20 7 20 23 0 13 5 28 12 35 6 6 9 14 7 17 -3 3 -18 -8 -32 -23z"/> <path d="M1405 229 c-11 -86 -2 -116 14 -45 9 40 10 65 3 80 -8 18 -11 12 -17 -35z"/> <path d="M1491 220 c-1 -70 18 -124 20 -60 2 50 -2 80 -11 104 -6 15 -9 1 -9 -44z"/> <path d="M2204 243 c4 -15 14 -34 21 -42 12 -13 15 -12 21 2 4 12 -3 26 -21 43 l-28 25 7 -28z"/> <path d="M2115 199 c9 -43 13 -49 31 -49 21 0 17 27 -6 43 -11 8 -17 16 -14 19 3 3 0 9 -6 13 -9 6 -10 -2 -5 -26z"/> <path d="M867 202 c-21 -23 -22 -52 -3 -52 8 0 15 14 18 35 2 19 3 35 3 35 -1 0 -9 -8 -18 -18z"/> <path d="M952 151 c-20 -28 -16 -51 7 -37 7 5 22 66 16 66 -1 0 -11 -13 -23 -29z"/> <path d="M2028 145 c3 -21 10 -35 18 -35 20 0 17 34 -4 53 -17 16 -18 15 -14 -18z"/> <path d="M1046 125 c-15 -27 -17 -38 -8 -47 17 -17 26 -3 28 42 1 22 1 40 0 40 -1 0 -10 -16 -20 -35z"/> <path d="M1930 125 c0 -30 15 -55 32 -55 14 0 9 24 -12 55 l-20 30 0 -30z"/> <path d="M1143 95 c-17 -36 -8 -65 16 -51 8 6 12 86 4 86 -2 0 -11 -16 -20 -35z"/> <path d="M1835 97 c1 -37 12 -60 26 -52 12 8 12 45 -1 45 -5 0 -10 9 -10 20 0 11 -3 20 -7 20 -5 0 -8 -15 -8 -33z"/> <path d="M1243 77 c-12 -27 -8 -57 7 -57 15 0 19 15 11 49 l-6 34 -12 -26z"/> <path d="M1742 66 c2 -22 9 -41 16 -44 16 -5 15 27 -3 58 -15 25 -15 25 -13 -14z"/> <path d="M1441 58 c-9 -25 -8 -35 3 -46 12 -12 15 -11 21 8 4 12 2 27 -3 32 -6 6 -8 17 -5 24 3 8 3 14 0 14 -3 0 -10 -14 -16 -32z"/> <path d="M1342 55 c-12 -26 -9 -45 8 -45 13 0 20 28 12 51 -8 20 -9 20 -20 -6z"/> <path d="M1642 50 c2 -19 8 -34 13 -33 17 3 17 27 0 48 -15 19 -15 18 -13 -15z"/> <path d="M1537 48 c-7 -25 11 -54 25 -40 8 8 -6 62 -16 62 -2 0 -6 -10 -9 -22z"/> </g> </svg> 